# xmcd
#
# Track frame offsets: 
#        150
#        12778
#        32496
#        46559
#        59854
#        72724
#        98446
#        109663
#        129229
#        143764
#        160263
#
# Disc length: 2420 seconds
#
# Revision: 0
# Processed by: cddbd v1.5.1PL2 Copyright (c) Steve Scherf et al.
# Submitted via: ExactAudioCopy v0.95b3
#
DISCID=8a09720b
DTITLE=Best of Live at Union Jack's 11-20-05 - The Manatawny Creek Ram
DTITLE=blers
DYEAR=2005
DGENRE=Bluegrass
TTITLE0=Ginseng Sullivan
TTITLE1=Meet Me by the Moonlight
TTITLE2=Lizzy Lou
TTITLE3=Rocky Top
TTITLE4=Graveyard Shift
TTITLE5=Tangled up in Blue
TTITLE6=I Been a Rockin'
TTITLE7=Midnight Moonlight
TTITLE8=Pity Party
TTITLE9=I got High
TTITLE10=Ole Slew Foot
EXTD=
EXTT0=
EXTT1=
EXTT2=
EXTT3=
EXTT4=
EXTT5=
EXTT6=
EXTT7=
EXTT8=
EXTT9=
EXTT10=
PLAYORDER=
